<svg width="21" height="21" viewBox="0 0 21 21" fill="none" xmlns="http://www.w3.org/2000/svg">
<path d="M9 0C7.93913 0 6.92172 0.421427 6.17157 1.17157C5.42143 1.92172 5 2.93913 5 4C5 5.06087 5.42143 6.07828 6.17157 6.82843C6.92172 7.57857 7.93913 8 9 8C10.0609 8 11.0783 7.57857 11.8284 6.82843C12.5786 6.07828 13 5.06087 13 4C13 2.93913 12.5786 1.92172 11.8284 1.17157C11.0783 0.421427 10.0609 0 9 0ZM9 11C5.859 11 0 12.546 0 15.5V18H10.1719L15.5977 12.5723C13.6157 11.5353 10.843 11 9 11ZM19.207 12C19.0792 12 18.951 12.049 18.8535 12.1465L17.8535 13.1465L19.8535 15.1465L20.8535 14.1465C21.0485 13.9515 21.0485 13.6345 20.8535 13.4395L19.5605 12.1465C19.4625 12.049 19.3349 12 19.207 12ZM17.1465 13.8535L12 19V21H14L19.1465 15.8535L17.1465 13.8535Z" fill="#505050"/>
</svg>
