<svg width="18" height="18" viewBox="0 0 18 18" fill="none" xmlns="http://www.w3.org/2000/svg">
<path fill-rule="evenodd" clip-rule="evenodd" d="M8.99984 0.666664C4.39634 0.666664 0.666504 4.3965 0.666504 9C0.666504 13.6035 4.39634 17.3333 8.99984 17.3333C13.6033 17.3333 17.3332 13.6035 17.3332 9C17.3332 4.3965 13.6033 0.666664 8.99984 0.666664ZM8.99984 15.7204C5.2868 15.7204 2.27941 12.713 2.27941 9C2.27941 5.28696 5.2868 2.27957 8.99984 2.27957C12.7129 2.27957 15.7203 5.28696 15.7203 9C15.7203 12.713 12.7129 15.7204 8.99984 15.7204ZM12.4205 6.90994L10.3305 9L12.4205 11.0901C12.5785 11.248 12.5785 11.5034 12.4205 11.6613L11.6611 12.4207C11.5032 12.5786 11.2478 12.5786 11.0899 12.4207L8.99984 10.3306L6.90978 12.4207C6.75185 12.5786 6.49648 12.5786 6.33855 12.4207L5.57914 11.6613C5.42121 11.5034 5.42121 11.248 5.57914 11.0901L7.66919 9L5.57914 6.90994C5.42121 6.75201 5.42121 6.49664 5.57914 6.33871L6.33855 5.5793C6.49648 5.42137 6.75185 5.42137 6.90978 5.5793L8.99984 7.66935L11.0899 5.5793C11.2478 5.42137 11.5032 5.42137 11.6611 5.5793L12.4205 6.33871C12.5785 6.49664 12.5785 6.75201 12.4205 6.90994Z" fill="#999999"/>
</svg>
