<svg width="34" height="34" viewBox="0 0 34 34" fill="none" xmlns="http://www.w3.org/2000/svg">
<path fill-rule="evenodd" clip-rule="evenodd" d="M33.6666 17C33.6666 26.2068 26.204 33.6667 16.9999 33.6667C7.79582 33.6667 0.333252 26.2068 0.333252 17C0.333252 7.7986 7.79582 0.333344 16.9999 0.333344C26.204 0.333344 33.6666 7.7986 33.6666 17ZM16.9999 20.3602C15.2926 20.3602 13.9085 21.7443 13.9085 23.4516C13.9085 25.1589 15.2926 26.543 16.9999 26.543C18.7072 26.543 20.0913 25.1589 20.0913 23.4516C20.0913 21.7443 18.7072 20.3602 16.9999 20.3602ZM14.5634 18.388L14.0649 9.24826C14.0397 8.7863 14.4074 8.39786 14.8701 8.39786H19.1297C19.5923 8.39786 19.9601 8.7863 19.9349 9.24826L19.4364 18.388C19.4131 18.8157 19.0595 19.1505 18.6312 19.1505H15.3687C14.9404 19.1505 14.5867 18.8157 14.5634 18.388Z" fill="#FDCB6F"/>
</svg>
