<svg width="18" height="10" viewBox="0 0 18 10" fill="none" xmlns="http://www.w3.org/2000/svg">
<path d="M1.5 5.83325C4.5 -0.833415 13.5 -0.833415 16.5 5.83325M9 9.16659C8.6717 9.16659 8.34661 9.10192 8.04329 8.97628C7.73998 8.85065 7.46438 8.6665 7.23223 8.43435C7.00009 8.20221 6.81594 7.92661 6.6903 7.62329C6.56466 7.31998 6.5 6.99489 6.5 6.66659C6.5 6.33828 6.56466 6.01319 6.6903 5.70988C6.81594 5.40656 7.00009 5.13096 7.23223 4.89882C7.46438 4.66667 7.73998 4.48252 8.04329 4.35689C8.34661 4.23125 8.6717 4.16659 9 4.16659C9.66304 4.16659 10.2989 4.42998 10.7678 4.89882C11.2366 5.36766 11.5 6.00354 11.5 6.66659C11.5 7.32963 11.2366 7.96551 10.7678 8.43435C10.2989 8.90319 9.66304 9.16659 9 9.16659Z" stroke="#545454" stroke-width="1.5" stroke-linecap="round" stroke-linejoin="round"/>
</svg>
