<svg width="148" height="148" viewBox="0 0 148 148" fill="none" xmlns="http://www.w3.org/2000/svg">
<path d="M124.61 23.6262H17.167V116.536H124.61V23.6262Z" fill="#DEDEDE"/>
<path d="M113.18 33.6711H28.123V105.624H113.18V33.6711Z" fill="#F3F3F3"/>
<path d="M97.1553 72.6914L108.417 95.5804" stroke="#1A1A1A" stroke-width="2.96" stroke-miterlimit="10"/>
<path d="M98.784 49.1174H43.1904V50.2896H98.784V49.1174ZM98.784 57.0775H43.1904V58.2491H98.784V57.0775ZM98.784 65.0216H43.1904V66.1933H98.784V65.0216ZM98.784 72.9658H43.1904V74.1374H98.784V72.9658ZM63.401 80.9247H43.1904V82.1117H63.401V80.9247Z" fill="white"/>
<path d="M37.2256 0.417969C37.2256 0.417969 62.6865 37.5211 64.6189 41.1731C69.8392 51.0502 69.0476 56.5442 62.2751 56.3922C58.4251 56.316 53.5856 52.6936 46.2503 42.8626" stroke="#1A1A1A" stroke-width="2.96" stroke-miterlimit="10"/>
<path d="M41.9127 27.2334C41.9127 27.2334 53.2044 38.4648 43.4343 47.4132C42.1796 48.6141 40.5672 49.3724 38.8421 49.573C37.1171 49.7736 35.3737 49.4055 33.877 48.5245" stroke="#1A1A1A" stroke-width="2.96" stroke-miterlimit="10"/>
<path d="M25.4307 49.0572C27.6982 51.6747 33.6644 51.1574 36.571 44.9636C40.0255 37.6278 32.7665 29.2119 32.7665 29.2119" stroke="#1A1A1A" stroke-width="2.96" stroke-miterlimit="10"/>
<path d="M23.1008 35.832C23.1008 35.832 29.7971 40.1395 26.0228 47.2159C22.249 54.2923 17.1961 52.8925 13.3153 51.6139C9.60986 49.9176 6.40264 47.2972 4.00156 44.0044C0.668793 38.313 4.59506 32.9408 8.2021 33.2453" stroke="#1A1A1A" stroke-width="2.96" stroke-miterlimit="10"/>
<path d="M0 20.5679C0 20.5679 12.1748 40.4439 15.3409 41.8738C15.3409 41.8738 18.8102 43.5786 13.4073 44.9181" stroke="#1A1A1A" stroke-width="2.96" stroke-miterlimit="10"/>
<path d="M147.999 108.211C145.61 105.609 142.171 102.383 134.105 94.606C128.641 89.3403 120.363 85.0641 111.673 86.4644C95.3585 89.1428 82.4377 97.5433 79.4702 99.3545C75.7414 101.607 75.5132 110.19 84.7815 108.486C89.6704 107.691 94.3373 105.876 98.4785 103.159" stroke="#1A1A1A" stroke-width="2.96" stroke-miterlimit="10"/>
<path d="M85.6798 108.379C85.6798 108.379 79.5924 113.858 85.36 117.389C89.8342 120.143 103.014 114.649 108.355 111.194" stroke="#1A1A1A" stroke-width="2.96" stroke-miterlimit="10"/>
<path d="M90.3231 117.997C90.3231 117.997 85.1029 122.288 88.801 126.275C92.956 130.674 111.629 123.232 114.581 121.847C118.691 119.96 117.138 116.368 115.571 115.759" stroke="#1A1A1A" stroke-width="2.96" stroke-miterlimit="10"/>
<path d="M95.1011 127.509C95.1011 127.509 91.6158 130.096 94.7051 134.052C98.2666 138.618 111.598 133.444 115.89 131.511C119.557 129.852 120.455 126.017 118.598 124.374M124.928 114.101C124.928 114.101 112.358 112.823 104.673 109.414C98.8134 106.826 94.8866 100.389 99.7261 97.2388C105.662 93.2972 119.693 98.5476 119.693 98.5476M113.576 134.677L125.873 147.582" stroke="#1A1A1A" stroke-width="2.96" stroke-miterlimit="10"/>
<path d="M109.452 28.2075C99.6213 11.1624 80.5368 4.4815 67.8903 11.7559C55.2437 19.0309 51.561 39.1498 61.392 56.2859C71.223 73.4221 90.8703 80.8029 103.487 73.5285C116.103 66.2541 119.283 45.2674 109.452 28.2075ZM67.9512 52.8769C60.3422 39.6215 62.0618 24.2966 71.8626 18.6502C81.6635 13.0043 95.7861 19.168 103.426 32.4228C111.065 45.6782 109.315 60.9884 99.5149 66.6342C89.714 72.2806 75.5909 66.117 67.9512 52.8769Z" fill="#1A1A1A"/>
<path d="M41.5156 100.313C44.7602 100.313 47.3902 97.683 47.3902 94.439C47.3902 91.1945 44.7602 88.5645 41.5156 88.5645C38.2716 88.5645 35.6416 91.1945 35.6416 94.439C35.6416 97.683 38.2716 100.313 41.5156 100.313Z" fill="#1A1A1A"/>
</svg>
