<svg width="21" height="21" viewBox="0 0 21 21" fill="none" xmlns="http://www.w3.org/2000/svg">
<path d="M2 0C0.895 0 0 0.895 0 2V3V4V16C0 17.103 0.897 18 2 18H13.1719L11.1719 16H2V4H16L15.998 11.1719L18 13.1719V4V3V2C18 0.895 17.105 0 16 0H2ZM4 7V9H6V7H4ZM8 7V9H14V7H8ZM4 11V13H6V11H4ZM8 11V13H10V11H8ZM12 12V14L17.1465 19.1465L19.1465 17.1465L14 12H12ZM19.8535 17.8535L17.8535 19.8535L18.8535 20.8535C19.0485 21.0485 19.3655 21.0485 19.5605 20.8535L20.8535 19.5605C21.0485 19.3645 21.0485 19.0485 20.8535 18.8535L19.8535 17.8535Z" fill="#3C3C3C"/>
</svg>
