<svg width="20" height="21" viewBox="0 0 20 21" fill="none" xmlns="http://www.w3.org/2000/svg">
<path d="M10 0.5C6.79783 0.5 3.94535 2.01266 2.11426 4.36035L1.99023 3.6582C1.96213 3.48357 1.87322 3.32449 1.7392 3.20905C1.60518 3.09362 1.43468 3.02926 1.25781 3.02734C1.14678 3.02625 1.03689 3.04983 0.936082 3.09637C0.835269 3.1429 0.746045 3.21124 0.674852 3.29645C0.603658 3.38166 0.55227 3.48161 0.524397 3.58909C0.496524 3.69657 0.49286 3.8089 0.513672 3.91797L0.947266 6.37988C0.964373 6.47691 1.00043 6.56961 1.05337 6.6527C1.10631 6.73578 1.1751 6.80763 1.25581 6.86412C1.33652 6.92062 1.42757 6.96066 1.52376 6.98197C1.61994 7.00327 1.71939 7.00542 1.81641 6.98828L4.27832 6.55469C4.37534 6.53757 4.46803 6.50151 4.55111 6.44856C4.63419 6.39562 4.70603 6.32683 4.76252 6.24612C4.81902 6.16541 4.85906 6.07437 4.88037 5.97819C4.90168 5.882 4.90384 5.78256 4.88672 5.68555C4.8696 5.58853 4.83354 5.49584 4.78059 5.41276C4.72765 5.32968 4.65886 5.25784 4.57815 5.20134C4.49744 5.14485 4.4064 5.1048 4.31022 5.08349C4.21403 5.06218 4.11459 5.06003 4.01758 5.07715L3.36426 5.19238C4.92074 3.24802 7.30955 2 10 2C14.7031 2 18.5 5.79685 18.5 10.5C18.5 15.2031 14.7031 19 10 19C5.29685 19 1.5 15.2031 1.5 10.5C1.5 10.4273 1.50109 10.3542 1.50293 10.2822C1.50798 10.0833 1.43381 9.89054 1.29673 9.74632C1.15964 9.6021 0.970885 9.51823 0.771973 9.51318C0.57306 9.50813 0.380289 9.58231 0.236065 9.71939C0.0918416 9.85647 0.00798021 10.0452 0.00292969 10.2441C0.000763138 10.3292 0 10.4147 0 10.5C0 16.0139 4.48615 20.5 10 20.5C15.5139 20.5 20 16.0139 20 10.5C20 4.98615 15.5139 0.5 10 0.5Z" fill="#858585"/>
</svg>
