<svg width="16" height="15" viewBox="0 0 16 15" fill="none" xmlns="http://www.w3.org/2000/svg">
<path d="M15.2806 13.7198C15.3502 13.7895 15.4055 13.8722 15.4432 13.9632C15.4809 14.0543 15.5003 14.1519 15.5003 14.2504C15.5003 14.349 15.4809 14.4465 15.4432 14.5376C15.4055 14.6286 15.3502 14.7114 15.2806 14.781C15.2109 14.8507 15.1281 14.906 15.0371 14.9437C14.9461 14.9814 14.8485 15.0008 14.7499 15.0008C14.6514 15.0008 14.5538 14.9814 14.4628 14.9437C14.3717 14.906 14.289 14.8507 14.2193 14.781L7.99993 8.56073L1.78055 14.781C1.63982 14.9218 1.44895 15.0008 1.24993 15.0008C1.05091 15.0008 0.860034 14.9218 0.719304 14.781C0.578573 14.6403 0.499512 14.4494 0.499512 14.2504C0.499512 14.0514 0.578573 13.8605 0.719304 13.7198L6.93962 7.50042L0.719304 1.28104C0.578573 1.14031 0.499512 0.94944 0.499512 0.750417C0.499512 0.551394 0.578573 0.360523 0.719304 0.219792C0.860034 0.0790615 1.05091 0 1.24993 0C1.44895 0 1.63982 0.0790615 1.78055 0.219792L7.99993 6.4401L14.2193 0.219792C14.36 0.0790615 14.5509 -3.92322e-09 14.7499 0C14.949 3.92322e-09 15.1398 0.0790615 15.2806 0.219792C15.4213 0.360523 15.5003 0.551394 15.5003 0.750417C15.5003 0.94944 15.4213 1.14031 15.2806 1.28104L9.06024 7.50042L15.2806 13.7198Z" fill="#858585"/>
</svg>
